<svg width="1756" height="289" viewBox="0 0 1756 289" fill="none" xmlns="http://www.w3.org/2000/svg">
<path d="M0.6 142C0.6 124.933 3.53333 108 9.4 91.2C15.5333 74.1333 24.3333 58.9333 35.8 45.6C47.5333 32 61.8 21.0667 78.6 12.8C95.4 4.53332 114.467 0.399981 135.8 0.399981C161.133 0.399981 182.867 6.13332 201 17.6C219.133 29.0667 232.6 44 241.4 62.4L213 80.8C208.733 71.7333 203.533 64.1333 197.4 58C191.533 51.8666 185 46.9333 177.8 43.2C170.867 39.4666 163.667 36.8 156.2 35.2C148.733 33.6 141.4 32.8 134.2 32.8C118.467 32.8 104.467 36.1333 92.2 42.8C80.2 49.2 70.0667 57.7333 61.8 68.4C53.5333 78.8 47.2667 90.6667 43 104C39 117.067 37 130.267 37 143.6C37 158.533 39.4 172.8 44.2 186.4C49.2667 199.733 56.2 211.6 65 222C73.8 232.4 84.2 240.667 96.2 246.8C108.2 252.933 121.267 256 135.4 256C142.867 256 150.467 255.067 158.2 253.2C166.2 251.333 173.8 248.4 181 244.4C188.2 240.133 194.867 234.933 201 228.8C207.4 222.4 212.6 214.8 216.6 206L246.6 222.4C242.067 233.067 235.667 242.533 227.4 250.8C219.4 258.8 210.2 265.6 199.8 271.2C189.667 276.8 178.867 281.067 167.4 284C155.933 286.933 144.733 288.4 133.8 288.4C114.333 288.4 96.4667 284.133 80.2 275.6C63.9333 267.067 49.8 256 37.8 242.4C26.0667 228.533 16.8667 212.933 10.2 195.6C3.8 178 0.6 160.133 0.6 142ZM411.731 288C391.731 288 373.465 284 356.931 276C340.665 267.733 326.665 256.933 314.931 243.6C303.198 230 294.131 214.533 287.731 197.2C281.331 179.867 278.131 162.133 278.131 144C278.131 125.067 281.465 106.933 288.131 89.6C295.065 72.2666 304.531 56.9333 316.531 43.6C328.531 30.2667 342.665 19.7333 358.931 12C375.465 3.99998 393.331 -1.33514e-05 412.531 -1.33514e-05C432.531 -1.33514e-05 450.665 4.26665 466.931 12.8C483.198 21.0667 497.198 32 508.931 45.6C520.665 59.2 529.731 74.6667 536.131 92C542.531 109.067 545.731 126.533 545.731 144.4C545.731 163.333 542.265 181.467 535.331 198.8C528.665 216.133 519.331 231.467 507.331 244.8C495.598 257.867 481.465 268.4 464.931 276.4C448.665 284.133 430.931 288 411.731 288ZM314.531 144C314.531 158.4 316.798 172.4 321.331 186C326.131 199.333 332.798 211.2 341.331 221.6C349.865 232 360.131 240.267 372.131 246.4C384.131 252.533 397.465 255.6 412.131 255.6C427.331 255.6 440.931 252.4 452.931 246C464.931 239.333 475.065 230.8 483.331 220.4C491.865 209.733 498.265 197.733 502.531 184.4C507.065 171.067 509.331 157.6 509.331 144C509.331 129.6 506.931 115.733 502.131 102.4C497.598 88.8 490.931 76.9333 482.131 66.8C473.598 56.4 463.331 48.1333 451.331 42C439.598 35.8667 426.531 32.8 412.131 32.8C396.931 32.8 383.331 36 371.331 42.4C359.331 48.8 349.065 57.2 340.531 67.6C332.265 78 325.865 89.8667 321.331 103.2C316.798 116.533 314.531 130.133 314.531 144ZM639.75 69.2V286H603.75V1.99998H631.75L807.75 223.2V2.39998H843.75V286H813.35L639.75 69.2ZM1124.36 34H1026.36V286H990.363V34H892.363V1.99998H1124.36V34ZM1232.71 1.99998H1263.11L1379.11 286H1340.71L1307.11 202.8H1187.91L1154.71 286H1116.31L1232.71 1.99998ZM1299.11 174.8L1247.91 43.6L1195.11 174.8H1299.11ZM1396.07 142C1396.07 124.933 1399 108 1404.87 91.2C1411 74.1333 1419.8 58.9333 1431.27 45.6C1443 32 1457.27 21.0667 1474.07 12.8C1490.87 4.53332 1509.94 0.399981 1531.27 0.399981C1556.6 0.399981 1578.34 6.13332 1596.47 17.6C1614.6 29.0667 1628.07 44 1636.87 62.4L1608.47 80.8C1604.2 71.7333 1599 64.1333 1592.87 58C1587 51.8666 1580.47 46.9333 1573.27 43.2C1566.34 39.4666 1559.14 36.8 1551.67 35.2C1544.2 33.6 1536.87 32.8 1529.67 32.8C1513.94 32.8 1499.94 36.1333 1487.67 42.8C1475.67 49.2 1465.54 57.7333 1457.27 68.4C1449 78.8 1442.74 90.6667 1438.47 104C1434.47 117.067 1432.47 130.267 1432.47 143.6C1432.47 158.533 1434.87 172.8 1439.67 186.4C1444.74 199.733 1451.67 211.6 1460.47 222C1469.27 232.4 1479.67 240.667 1491.67 246.8C1503.67 252.933 1516.74 256 1530.87 256C1538.34 256 1545.94 255.067 1553.67 253.2C1561.67 251.333 1569.27 248.4 1576.47 244.4C1583.67 240.133 1590.34 234.933 1596.47 228.8C1602.87 222.4 1608.07 214.8 1612.07 206L1642.07 222.4C1637.54 233.067 1631.14 242.533 1622.87 250.8C1614.87 258.8 1605.67 265.6 1595.27 271.2C1585.14 276.8 1574.34 281.067 1562.87 284C1551.4 286.933 1540.2 288.4 1529.27 288.4C1509.8 288.4 1491.94 284.133 1475.67 275.6C1459.4 267.067 1445.27 256 1433.27 242.4C1421.54 228.533 1412.34 212.933 1405.67 195.6C1399.27 178 1396.07 160.133 1396.07 142ZM1899.93 34H1801.93V286H1765.93V34H1667.93V1.99998H1899.93V34ZM2162.69 255.6C2179.22 255.6 2192.96 252.4 2203.89 246C2214.82 239.6 2223.49 231.333 2229.89 221.2C2236.56 210.8 2241.22 199.067 2243.89 186C2246.56 172.667 2247.89 159.2 2247.89 145.6V1.99998H2283.89V145.6C2283.89 164.8 2281.62 183.067 2277.09 200.4C2272.82 217.467 2265.89 232.533 2256.29 245.6C2246.69 258.667 2234.16 269.067 2218.69 276.8C2203.49 284.267 2184.96 288 2163.09 288C2140.42 288 2121.36 284 2105.89 276C2090.42 268 2077.89 257.467 2068.29 244.4C2058.96 231.067 2052.16 215.867 2047.89 198.8C2043.89 181.467 2041.89 163.733 2041.89 145.6V1.99998H2077.89V145.6C2077.89 159.733 2079.22 173.467 2081.89 186.8C2084.82 199.867 2089.49 211.467 2095.89 221.6C2102.56 231.733 2111.22 240 2121.89 246.4C2132.82 252.533 2146.42 255.6 2162.69 255.6ZM2522.64 61.6C2519.44 57.8666 2515.18 54.2667 2509.84 50.8C2504.51 47.3333 2498.51 44.2667 2491.84 41.6C2485.18 38.6667 2477.84 36.4 2469.84 34.8C2462.11 32.9333 2453.98 32 2445.44 32C2423.31 32 2407.04 36.1333 2396.64 44.4C2386.51 52.6667 2381.44 64 2381.44 78.4C2381.44 86.1333 2382.91 92.5333 2385.84 97.6C2388.78 102.667 2393.31 107.067 2399.44 110.8C2405.84 114.267 2413.71 117.333 2423.04 120C2432.38 122.667 2443.44 125.467 2456.24 128.4C2470.91 131.6 2484.11 135.333 2495.84 139.6C2507.84 143.6 2517.98 148.667 2526.24 154.8C2534.78 160.933 2541.18 168.4 2545.44 177.2C2549.98 186 2552.24 196.8 2552.24 209.6C2552.24 223.2 2549.58 235.067 2544.24 245.2C2538.91 255.067 2531.58 263.333 2522.24 270C2513.18 276.4 2502.38 281.2 2489.84 284.4C2477.31 287.333 2463.71 288.8 2449.04 288.8C2427.18 288.8 2406.38 285.467 2386.64 278.8C2367.18 271.867 2349.44 261.867 2333.44 248.8L2350.64 218.4C2354.91 222.933 2360.38 227.467 2367.04 232C2373.98 236.533 2381.71 240.667 2390.24 244.4C2399.04 247.867 2408.38 250.8 2418.24 253.2C2428.38 255.333 2438.91 256.4 2449.84 256.4C2470.11 256.4 2485.84 252.8 2497.04 245.6C2508.24 238.4 2513.84 227.6 2513.84 213.2C2513.84 205.2 2511.98 198.533 2508.24 193.2C2504.78 187.6 2499.58 182.8 2492.64 178.8C2485.71 174.8 2477.04 171.333 2466.64 168.4C2456.51 165.2 2444.91 162 2431.84 158.8C2417.44 155.333 2404.78 151.6 2393.84 147.6C2382.91 143.6 2373.71 138.8 2366.24 133.2C2359.04 127.6 2353.58 120.8 2349.84 112.8C2346.11 104.8 2344.24 95.2 2344.24 84C2344.24 70.4 2346.78 58.4 2351.84 48C2356.91 37.6 2363.98 28.8 2373.04 21.6C2382.11 14.4 2392.91 9.06666 2405.44 5.59999C2417.98 1.86665 2431.58 -1.33514e-05 2446.24 -1.33514e-05C2465.44 -1.33514e-05 2482.78 2.93332 2498.24 8.79999C2513.71 14.6667 2527.44 22.5333 2539.44 32.4L2522.64 61.6Z" fill="black"/>
</svg>
