<svg width="38" height="32" viewBox="0 0 38 32" fill="none" xmlns="http://www.w3.org/2000/svg">
<g clip-path="url(#clip0_1_223)">
<path d="M27.7137 0.221436H10.2862C4.61431 0.221436 0 4.04094 0 8.73588V23.1617C0 27.8564 4.61431 31.6759 10.2862 31.6759H27.714C33.3856 31.6759 37.9999 27.8564 37.9999 23.1617V8.73588C37.9999 4.04094 33.3856 0.221436 27.7137 0.221436ZM35.7722 23.1617C35.7722 26.8396 32.1572 29.8319 27.7137 29.8319H10.2862C5.84269 29.8319 2.22772 26.8396 2.22772 23.1617V8.73588C2.22772 5.05773 5.84269 2.06543 10.2862 2.06543H27.714C32.1572 2.06543 35.7722 5.05773 35.7722 8.73588V23.1617Z" fill="black" fill-opacity="0.5"/>
<path d="M19 7.34802C13.2706 7.34802 8.60965 11.2062 8.60965 15.9486C8.60965 20.6911 13.2706 24.5492 19 24.5492C24.7293 24.5492 29.3903 20.6911 29.3903 15.9486C29.3903 11.2062 24.7293 7.34802 19 7.34802ZM19 22.7052C14.4993 22.7052 10.8374 19.6743 10.8374 15.9486C10.8374 12.2232 14.4993 9.19202 19 9.19202C23.5009 9.19202 27.1626 12.2232 27.1626 15.9486C27.1626 19.6743 23.5009 22.7052 19 22.7052Z" fill="black" fill-opacity="0.5"/>
<path d="M29.6387 4.29358C27.9456 4.29358 26.5685 5.43372 26.5685 6.83495C26.5685 8.23643 27.9456 9.37657 29.6387 9.37657C31.3319 9.37657 32.7092 8.23643 32.7092 6.83495C32.7092 5.43348 31.3319 4.29358 29.6387 4.29358ZM29.6387 7.53233C29.1743 7.53233 28.7962 7.2194 28.7962 6.83495C28.7962 6.45027 29.1743 6.13758 29.6387 6.13758C30.1035 6.13758 30.4815 6.45027 30.4815 6.83495C30.4815 7.2194 30.1035 7.53233 29.6387 7.53233Z" fill="black" fill-opacity="0.5"/>
</g>
<defs>
<clipPath id="clip0_1_223">
<rect width="38" height="31.4545" fill="white" transform="translate(0 0.221436)"/>
</clipPath>
</defs>
</svg>
