<svg width="37" height="31" viewBox="0 0 37 31" fill="none" xmlns="http://www.w3.org/2000/svg">
<g clip-path="url(#clip0_1_183)">
<path d="M14.1055 30.0629C11.4122 30.0629 8.87205 29.3699 6.75973 28.0585C6.36516 27.8137 5.98576 27.5462 5.63166 27.2641C3.16596 25.2988 1.92516 22.6812 2.13834 19.8935C2.29949 17.7865 3.35168 15.7553 5.10268 14.1741C7.42168 12.0799 10.6187 10.9265 14.1063 10.9265C14.7053 10.9265 15.3102 10.9626 15.9057 11.0337L16.8307 11.1445V17.765L15.4063 17.3855C14.9915 17.2748 14.5601 17.2188 14.1236 17.2188C13.0208 17.2188 11.9881 17.5674 11.2156 18.1998C10.4467 18.8292 10.0326 19.6615 10.0485 20.5445C10.0695 21.6828 10.8131 22.7145 12.0373 23.3055C12.601 23.5771 13.2427 23.7362 13.8945 23.7653C14.409 23.7881 14.9171 23.7338 15.4056 23.6039C17.0756 23.1592 18.1979 21.9096 18.1979 20.495L18.2052 13.6291V0.221436H26.0503L26.0597 1.08754C26.064 1.47979 26.1139 1.87204 26.2079 2.25206C26.5764 3.74646 27.6156 5.07825 29.1339 6.00148C30.4816 6.82153 32.0903 7.25459 33.7842 7.25459C33.8239 7.25459 33.8239 7.25459 34.186 7.27498L35.1941 7.3321V12.6942V13.5685L34.8328 13.5679H34.1123C34.1065 13.5679 34.1007 13.5679 34.0942 13.5679H33.7481C33.7466 13.5679 33.7444 13.5679 33.7423 13.5679C31.6531 13.5679 29.6954 13.2468 27.7551 12.5864C27.1769 12.3894 26.614 12.1644 26.0706 11.9132L26.0951 20.5282C26.0821 23.0764 24.8334 25.4666 22.5794 27.2635C20.7504 28.7212 18.4422 29.6526 15.9042 29.9557C15.3124 30.0268 14.7075 30.0629 14.1055 30.0629ZM14.1055 12.675C11.2445 12.675 8.62129 13.621 6.71926 15.3386C5.29129 16.6284 4.43277 18.2843 4.30125 20.0007C4.12781 22.2767 5.14098 24.4146 7.15502 26.0198C7.44625 26.2517 7.75772 26.4715 8.08147 26.6725C9.81151 27.7467 11.8949 28.3144 14.1055 28.3144C14.6013 28.3144 15.0992 28.2847 15.587 28.2264C17.6661 27.9781 19.5572 27.2152 21.056 26.0203C22.8974 24.5527 23.917 22.602 23.9279 20.5271L23.8939 8.49779L25.6449 9.58712C26.5489 10.1496 27.5433 10.617 28.5991 10.9766C30.0423 11.4679 31.497 11.7407 33.0254 11.8054V8.98155C31.1364 8.86731 29.3521 8.32585 27.828 7.39855C25.8841 6.21654 24.5537 4.50998 24.0811 2.59418C24.0305 2.38844 23.9893 2.18037 23.959 1.97054H20.3724V13.6297L20.3652 20.4956C20.3652 22.6655 18.6453 24.5819 16.0849 25.2638C15.3384 25.4626 14.5615 25.5453 13.7753 25.5109C12.7737 25.4666 11.788 25.2224 10.9237 24.8057C9.04983 23.9017 7.91164 22.3181 7.87985 20.5702C7.85528 19.2157 8.49049 17.9381 9.66987 16.9723C10.8529 16.0036 12.434 15.4703 14.1222 15.4703C14.3028 15.4703 14.482 15.4767 14.6613 15.489V12.6873C14.4763 12.6791 14.2905 12.675 14.1055 12.675Z" fill="black" fill-opacity="0.5"/>
</g>
<defs>
<clipPath id="clip0_1_183">
<rect width="37" height="29.8415" fill="white" transform="translate(0 0.221436)"/>
</clipPath>
</defs>
</svg>
