<svg width="41" height="34" viewBox="0 0 41 34" fill="none" xmlns="http://www.w3.org/2000/svg">
<g clip-path="url(#clip0_1_204)">
<path d="M40.8189 7.87641C40.5765 7.55839 40.133 7.37814 39.6713 7.41043L37.6269 7.55407L39.581 4.37692C39.8137 3.99852 39.7218 3.54261 39.3525 3.24313C38.983 2.94365 38.4183 2.86731 37.948 3.05305L32.776 5.09595C29.5806 3.7354 25.5885 4.13925 22.8415 6.15747C20.5488 7.84186 19.3437 10.4322 19.5684 13.0153C13.5762 12.5309 8.50408 9.76469 5.50482 5.295C5.30583 4.99849 4.93275 4.80454 4.51578 4.78071C4.09801 4.75726 3.69554 4.90659 3.44681 5.17765C1.58659 7.20447 1.45607 9.98344 2.91437 12.2697C2.51238 12.1878 2.0846 12.077 1.61022 11.9492C1.20382 11.8396 0.755783 11.9098 0.429624 12.134C0.103465 12.3582 -0.0533284 12.7038 0.0164198 13.0449C0.593464 15.8665 2.63354 18.035 5.85621 19.3186C5.4366 19.4365 5.00842 19.5322 4.57303 19.6054C4.14045 19.6781 3.79019 19.9333 3.65686 20.2731C3.52353 20.6128 3.62779 20.9842 3.92969 21.2444C6.25043 23.2451 9.60283 24.2299 11.984 24.7022C9.27659 26.4123 6.35398 26.6984 2.1071 26.5808C1.6155 26.5688 1.16258 26.7921 0.955898 27.1516C0.749296 27.511 0.829455 27.9354 1.15962 28.2289C2.92999 29.8028 9.37997 31.5775 16.1604 31.7105C16.4285 31.7157 16.7021 31.7186 16.9814 31.7186C21.7421 31.7185 28.034 30.8954 32.5501 27.253C35.9684 24.4961 38.1065 21.3224 38.9048 17.8202C39.5496 14.9915 39.1421 12.7264 38.9463 11.6377C38.9319 11.5577 38.9165 11.4728 38.904 11.3985L40.8164 8.91262C41.0603 8.5955 41.0613 8.19443 40.8189 7.87641ZM36.5263 11.9209C36.8891 13.9375 37.993 20.0741 30.8211 25.8584C26.6522 29.2207 20.58 29.8244 16.2198 29.739C12.4993 29.666 9.17137 29.0921 6.75941 28.4376C7.73869 28.3407 8.61138 28.1913 9.43515 27.9848C11.7061 27.4155 13.6246 26.3911 15.4726 24.761C15.7807 24.4893 15.8754 24.1019 15.7183 23.7563C15.5613 23.4106 15.1785 23.1643 14.7258 23.1175C13.5599 22.997 10.0568 22.5214 7.29826 20.9867C8.0932 20.7245 8.85987 20.3963 9.59194 20.0047C9.99353 19.7897 10.2013 19.4047 10.1221 19.0212C10.0431 18.6379 9.69228 18.3275 9.22606 18.229C6.96826 17.7516 4.24335 16.6833 2.98684 14.2986C3.78923 14.4121 4.66168 14.4395 5.59219 14.2713C6.02349 14.1934 6.36911 13.9337 6.49595 13.5922C6.62288 13.2507 6.51141 12.8805 6.20439 12.6241C4.64094 11.318 4.05629 9.43589 4.5579 7.82532C6.20063 9.76166 8.28178 11.3913 10.6662 12.5961C13.7165 14.1374 17.2766 14.9893 20.9619 15.0592C21.3369 15.0656 21.6966 14.9336 21.9354 14.6993C22.174 14.465 22.2658 14.1552 22.1842 13.8592C21.5501 11.5603 22.4544 9.10954 24.4881 7.61549C26.5974 6.06576 29.7147 5.83067 32.0688 7.04416C32.4283 7.22946 32.8817 7.25019 33.265 7.0988L35.7908 6.10109L34.4687 8.25055C34.2723 8.56993 34.3049 8.94995 34.554 9.24439C34.8031 9.53884 35.2292 9.7023 35.6702 9.67111L37.4513 9.54601L36.6308 10.6126C36.3554 10.9706 36.4125 11.2883 36.5263 11.9209Z" fill="black" fill-opacity="0.5"/>
</g>
<defs>
<clipPath id="clip0_1_204">
<rect width="41" height="33.0676" fill="white" transform="translate(0 0.80188)"/>
</clipPath>
</defs>
</svg>
