<svg width="23" height="22" viewBox="0 0 23 22" fill="none" xmlns="http://www.w3.org/2000/svg">
<g clip-path="url(#clip0_1_113)">
<path d="M22.6798 6.9907L11.8987 0.115829C11.6573 -0.0386096 11.3428 -0.0386096 11.1014 0.115829L0.320298 6.9907C0.120239 7.11827 0.000213623 7.3331 0.000213623 7.56271V19.9375C0.000213623 21.0748 0.967427 22 2.15645 22H20.8437C22.0327 22 22.9999 21.0748 22.9999 19.9375V7.56271C22.9999 7.3331 22.8799 7.11827 22.6798 6.9907ZM11.5001 1.51432L20.9855 7.56276L11.5001 13.6112L2.01467 7.56276L11.5001 1.51432ZM20.8437 20.625H2.15645C1.75988 20.625 1.43769 20.3168 1.43769 19.9375V8.84731L11.1014 15.0096C11.2221 15.0868 11.3611 15.1251 11.5 15.1251C11.639 15.1251 11.778 15.0869 11.8987 15.0096L21.5624 8.84731V19.9375C21.5625 20.3168 21.2403 20.625 20.8437 20.625Z" fill="#0D0D11" fill-opacity="0.8"/>
</g>
<defs>
<clipPath id="clip0_1_113">
<rect width="23" height="22" fill="white"/>
</clipPath>
</defs>
</svg>
