<svg width="38" height="31" viewBox="0 0 38 31" fill="none" xmlns="http://www.w3.org/2000/svg">
<g clip-path="url(#clip0_1_229)">
<path d="M26.6551 5.55545H30.3734V0.224436H23.6162C23.0525 0.206017 16.1812 0.102872 14.4002 5.43634C14.3744 5.49221 13.8052 6.76065 13.8052 9.72362L7.62658 9.73835V15.3297L13.8131 15.3156V30.0635H23.2628V15.3285H29.5173V9.72239H23.2628V7.95848C23.2628 6.86195 23.8515 5.55545 26.6551 5.55545ZM27.9537 10.9497V14.0999H21.6992V28.8349H15.3767V14.084L9.19021 14.0981V10.9626L15.3931 10.9485L15.3767 10.3241C15.2954 7.18551 15.8653 5.8655 15.8911 5.80226C17.4282 1.20861 23.2972 1.43946 23.549 1.45174L28.8098 1.45297V4.32814H26.6551C23.0017 4.32814 21.7 6.20317 21.7 7.95787V10.9497H27.9537Z" fill="black" fill-opacity="0.5"/>
<path d="M13.8119 14.8156L8.12658 14.8285V10.2372L13.8064 10.2236L14.3052 10.2224V9.72362C14.3052 6.84504 14.8542 5.6458 14.8542 5.6458L14.8657 5.62089L14.8745 5.5947C15.6946 3.13864 17.6862 1.91281 19.616 1.29998C21.5485 0.686297 23.3421 0.715745 23.5999 0.724169L23.608 0.724436H23.6162H29.8734V5.05545H26.6551C25.1847 5.05545 24.192 5.39736 23.5668 5.97996C22.9349 6.56875 22.7628 7.32369 22.7628 7.95848V9.72239V10.2224H23.2628H29.0173V14.8285H23.2628H22.7628V15.3285V29.5635H14.3131V15.3156V14.8144L13.8119 14.8156ZM28.4537 10.9497V10.4497H27.9537H22.2V7.95787C22.2 7.20646 22.4763 6.44242 23.1378 5.86039C23.803 5.27515 24.9109 4.82814 26.6551 4.82814H28.8098H29.3098V4.32814V1.45297V0.953086L28.8099 0.952969L23.5606 0.951744C23.3493 0.942435 21.7861 0.89468 20.0564 1.42147C18.2854 1.96082 16.2653 3.12944 15.4225 5.62724C15.4204 5.63222 15.4181 5.63785 15.4161 5.64304C15.409 5.66066 15.4 5.68368 15.3894 5.7122C15.3683 5.76922 15.3412 5.84723 15.3105 5.94734C15.249 6.14753 15.1733 6.43509 15.1021 6.81866C14.9597 7.58586 14.8354 8.73558 14.8769 10.337L14.8769 10.3372L14.8798 10.4496L9.18907 10.4626L8.69021 10.4637V10.9626V14.0981V14.5992L9.19135 14.5981L14.8767 14.5851V28.8349V29.3349H15.3767H21.6992H22.1992V28.8349V14.5999H27.9537H28.4537V14.0999V10.9497Z" stroke="black" stroke-opacity="0.2"/>
</g>
<defs>
<clipPath id="clip0_1_229">
<rect width="38" height="29.8415" fill="white" transform="translate(0 0.221436)"/>
</clipPath>
</defs>
</svg>
