<svg width="43" height="34" viewBox="0 0 43 34" fill="none" xmlns="http://www.w3.org/2000/svg">
<path d="M32.2554 10.3252H30.8332C28.1919 10.3252 25.6861 11.2509 24.0607 12.7211V11.9588C24.0607 11.4143 23.3834 10.8697 22.7061 10.8697H15.9336C15.324 10.8697 14.579 11.3053 14.579 11.9043V32.215C14.579 32.814 15.324 33.1952 15.9336 33.1952H23.3834C23.993 33.1952 24.738 32.814 24.738 32.215V20.4533C24.738 18.6564 26.3634 17.2406 28.4628 17.2406C29.5464 17.2406 30.5623 17.5673 31.3073 18.1663C31.9846 18.6564 32.2555 19.4187 32.2555 20.3989V32.1062C32.2555 32.6507 32.9327 33.1953 33.61 33.1953H40.3826C41.0598 33.1953 41.7371 32.6508 41.7371 32.1062V18.0574C41.737 13.7013 37.6058 10.3252 32.2554 10.3252ZM40.3825 32.0518L40.3148 32.1062H33.6777L33.61 20.3989C33.61 19.0921 33.2036 18.1119 32.3232 17.4041C31.3073 16.5873 29.9528 16.1516 28.5305 16.1516C25.6861 16.2061 23.4511 18.0575 23.4511 20.4534V32.1062H16.0013V11.9588H22.7061L22.7738 12.0132V15.4437L24.6024 13.9735L24.6701 13.9191C26.0246 12.3944 28.395 11.4143 30.9009 11.4143H32.3231C36.8607 11.4143 40.3825 14.3547 40.3825 18.0575V32.0518Z" fill="black" fill-opacity="0.5" stroke="black" stroke-opacity="0.2"/>
<path d="M9.33001 10.6475H3.78429C2.68887 10.6475 1.79877 11.3624 1.79877 12.2973V31.5456C1.79877 32.4255 2.75731 33.1954 3.85273 33.1954H9.33001C10.4254 33.1954 11.384 32.4255 11.384 31.6005V12.2973C11.384 11.4173 10.4254 10.6475 9.33001 10.6475ZM10.0146 31.6005C10.0146 31.8755 9.67228 32.0955 9.33001 32.0955H3.85273C3.51038 32.0955 3.16811 31.8205 3.16811 31.5456V12.2973C3.16811 12.0223 3.44194 11.7474 3.78429 11.7474H9.33001C9.67236 11.7474 10.0146 12.0224 10.0146 12.2973V31.6005Z" fill="black" fill-opacity="0.5" stroke="black" stroke-opacity="0.2"/>
<path d="M6.45647 0.984009C4.97449 0.984009 3.62719 1.41868 2.61673 2.23365C1.53894 3.10292 1 4.18951 1 5.33046C1 6.52572 1.60627 7.61237 2.61673 8.42734C3.62719 9.2423 5.04183 9.73129 6.38914 9.67698C6.38914 9.67698 6.45647 9.67698 6.52389 9.67698C7.87119 9.67698 9.15108 9.2423 10.1615 8.42734C11.172 7.61237 11.7783 6.52572 11.7783 5.33046C11.8456 4.18951 11.2393 3.10286 10.2289 2.28789C9.21842 1.41862 7.87112 0.984009 6.45647 0.984009ZM9.21842 7.66674C8.47739 8.26441 7.46693 8.6447 6.38914 8.59039C5.37868 8.59039 4.30088 8.26441 3.55985 7.66674C2.75149 7.06908 2.3473 6.1998 2.3473 5.33052C2.3473 4.46125 2.75149 3.64628 3.55985 2.9943C4.30088 2.39664 5.31134 2.07065 6.45647 2.07065C7.46693 2.07065 8.47739 2.39664 9.21842 2.9943C10.0268 3.64628 10.431 4.46125 10.431 5.33052C10.431 6.1998 10.0268 7.06908 9.21842 7.66674Z" fill="black" fill-opacity="0.5" stroke="black" stroke-opacity="0.2"/>
</svg>
