<svg width="22" height="21" viewBox="0 0 22 21" fill="none" xmlns="http://www.w3.org/2000/svg">
<g clip-path="url(#clip0_1_73)">
<path d="M4.48292 13.9594C6.65283 16.4353 9.26494 18.3848 12.2463 19.7642C13.3814 20.2777 14.8994 20.8869 16.5907 20.9913C16.6955 20.9956 16.7958 21 16.9007 21C18.0358 21 18.9475 20.6258 19.6905 19.8556C19.6951 19.8512 19.7042 19.8425 19.7088 19.8338C19.9732 19.5292 20.2741 19.2551 20.5886 18.9635C20.8029 18.7677 21.0217 18.5632 21.2314 18.3543C22.2024 17.3883 22.2024 16.1612 21.2222 15.2257L18.4825 12.6104C18.0175 12.1492 17.4614 11.9055 16.8779 11.9055C16.2944 11.9055 15.7336 12.1492 15.255 12.6061L13.623 14.1639C13.4726 14.0812 13.3176 14.0073 13.1717 13.9376C12.9893 13.8506 12.8207 13.7679 12.6702 13.6765C11.1841 12.7758 9.83477 11.6009 8.54467 10.091C7.89278 9.30336 7.45516 8.64194 7.14973 7.96747C7.57824 7.5976 7.9794 7.21032 8.36688 6.83174C8.50364 6.69685 8.64496 6.56196 8.78628 6.42706C9.27861 5.95711 9.54301 5.41318 9.54301 4.86055C9.54301 4.30792 9.28317 3.76399 8.78628 3.29403L7.4278 1.99731C7.26825 1.84501 7.11782 1.69706 6.96282 1.54476C6.66195 1.24886 6.34741 0.94426 6.03742 0.67012C5.56788 0.230626 5.01628 0 4.43278 0C3.85383 0 3.29768 0.230626 2.8099 0.674472L1.10497 2.30191C0.484994 2.8937 0.133979 3.61169 0.0610405 4.44281C-0.0255736 5.4828 0.175007 6.58806 0.694692 7.92395C1.49245 9.99088 2.69593 11.9099 4.48292 13.9594ZM1.17335 4.53419C1.22805 3.95545 1.46054 3.47244 1.89817 3.0547L3.59399 1.43597C3.85839 1.19229 4.15014 1.0661 4.43278 1.0661C4.71085 1.0661 4.99349 1.19229 5.25333 1.44467C5.55876 1.71446 5.84596 1.99731 6.15594 2.29755C6.31094 2.44985 6.47049 2.60215 6.63004 2.75881L7.98852 4.05553C8.27115 4.32532 8.41703 4.59946 8.41703 4.86925C8.41703 5.13904 8.27115 5.41318 7.98852 5.68297C7.8472 5.81786 7.70588 5.95711 7.56456 6.092C7.14061 6.50104 6.74401 6.88831 6.30638 7.25818C6.29726 7.26689 6.2927 7.27124 6.28359 7.27994C5.90522 7.64111 5.96448 7.98487 6.05565 8.24596C6.06021 8.25901 6.06477 8.26772 6.06933 8.28077C6.42034 9.08578 6.90812 9.85164 7.66941 10.7654C9.037 12.3755 10.4775 13.6243 12.0639 14.586C12.26 14.7078 12.4697 14.8036 12.6657 14.8993C12.848 14.9863 13.0167 15.069 13.1671 15.1604C13.1854 15.1691 13.199 15.1778 13.2173 15.1865C13.3677 15.2605 13.5136 15.2953 13.6595 15.2953C14.0242 15.2953 14.2612 15.0734 14.3387 14.9994L16.0436 13.3719C16.308 13.1196 16.5952 12.9847 16.8779 12.9847C17.2243 12.9847 17.507 13.1892 17.6847 13.3719L20.4336 15.9915C20.9806 16.5137 20.9761 17.0794 20.4199 17.632C20.2285 17.8278 20.0279 18.0149 19.8136 18.2107C19.4945 18.5066 19.1617 18.8112 18.8609 19.155C18.3366 19.6946 17.7121 19.947 16.9052 19.947C16.8277 19.947 16.7457 19.9426 16.6682 19.9383C15.1729 19.8469 13.7825 19.2899 12.7386 18.8156C9.90314 17.5058 7.41413 15.6477 5.34906 13.2893C3.64869 11.3355 2.50447 9.51658 1.74774 7.56714C1.2782 6.37049 1.10041 5.40883 1.17335 4.53419Z" fill="#0D0D11" fill-opacity="0.8"/>
</g>
<defs>
<clipPath id="clip0_1_73">
<rect width="22" height="21" fill="white"/>
</clipPath>
</defs>
</svg>
